<mxfile host="65bd71144e">
    <diagram name="Page-1" id="iE42sfjzO5DZtnl1Qp16">
        <mxGraphModel dx="580" dy="398" grid="1" gridSize="10" guides="1" tooltips="1" connect="1" arrows="1" fold="1" page="1" pageScale="1" pageWidth="850" pageHeight="1100" background="none" math="0" shadow="0">
            <root>
                <mxCell id="0"/>
                <mxCell id="1" parent="0"/>
                <mxCell id="flhcPA2HnhjmB6iD5dIR-1" value="世界" style="rounded=0;whiteSpace=wrap;html=1;" parent="1" vertex="1">
                    <mxGeometry x="534" y="220" width="60" height="30" as="geometry"/>
                </mxCell>
                <mxCell id="flhcPA2HnhjmB6iD5dIR-2" value="日本" style="rounded=0;whiteSpace=wrap;html=1;" parent="1" vertex="1">
                    <mxGeometry x="456" y="290" width="60" height="30" as="geometry"/>
                </mxCell>
                <mxCell id="flhcPA2HnhjmB6iD5dIR-3" value="" style="endArrow=classic;html=1;rounded=0;exitX=0.5;exitY=1;exitDx=0;exitDy=0;entryX=0.5;entryY=0;entryDx=0;entryDy=0;" parent="1" source="flhcPA2HnhjmB6iD5dIR-1" target="flhcPA2HnhjmB6iD5dIR-2" edge="1">
                    <mxGeometry width="50" height="50" relative="1" as="geometry">
                        <mxPoint x="520" y="240" as="sourcePoint"/>
                        <mxPoint x="570" y="190" as="targetPoint"/>
                    </mxGeometry>
                </mxCell>
                <mxCell id="D9wr6coG-Lvy3lCccFGk-1" value="中国" style="rounded=0;whiteSpace=wrap;html=1;" parent="1" vertex="1">
                    <mxGeometry x="612" y="290" width="60" height="30" as="geometry"/>
                </mxCell>
                <mxCell id="D9wr6coG-Lvy3lCccFGk-2" value="" style="endArrow=classic;html=1;rounded=0;entryX=0.5;entryY=0;entryDx=0;entryDy=0;exitX=0.5;exitY=1;exitDx=0;exitDy=0;" parent="1" source="flhcPA2HnhjmB6iD5dIR-1" target="D9wr6coG-Lvy3lCccFGk-1" edge="1">
                    <mxGeometry width="50" height="50" relative="1" as="geometry">
                        <mxPoint x="580" y="250" as="sourcePoint"/>
                        <mxPoint x="670" y="190" as="targetPoint"/>
                    </mxGeometry>
                </mxCell>
                <mxCell id="D9wr6coG-Lvy3lCccFGk-4" value="三重" style="rounded=0;whiteSpace=wrap;html=1;" parent="1" vertex="1">
                    <mxGeometry x="420" y="350" width="60" height="30" as="geometry"/>
                </mxCell>
                <mxCell id="D9wr6coG-Lvy3lCccFGk-5" value="香川" style="rounded=0;whiteSpace=wrap;html=1;" parent="1" vertex="1">
                    <mxGeometry x="490" y="350" width="60" height="30" as="geometry"/>
                </mxCell>
                <mxCell id="D9wr6coG-Lvy3lCccFGk-6" value="" style="endArrow=classic;html=1;rounded=0;exitX=0.5;exitY=1;exitDx=0;exitDy=0;entryX=0.5;entryY=0;entryDx=0;entryDy=0;" parent="1" source="flhcPA2HnhjmB6iD5dIR-2" target="D9wr6coG-Lvy3lCccFGk-4" edge="1">
                    <mxGeometry width="50" height="50" relative="1" as="geometry">
                        <mxPoint x="550" y="380" as="sourcePoint"/>
                        <mxPoint x="600" y="330" as="targetPoint"/>
                    </mxGeometry>
                </mxCell>
                <mxCell id="D9wr6coG-Lvy3lCccFGk-7" value="" style="endArrow=classic;html=1;rounded=0;entryX=0.5;entryY=0;entryDx=0;entryDy=0;exitX=0.5;exitY=1;exitDx=0;exitDy=0;" parent="1" source="flhcPA2HnhjmB6iD5dIR-2" target="D9wr6coG-Lvy3lCccFGk-5" edge="1">
                    <mxGeometry width="50" height="50" relative="1" as="geometry">
                        <mxPoint x="520" y="330" as="sourcePoint"/>
                        <mxPoint x="600" y="330" as="targetPoint"/>
                    </mxGeometry>
                </mxCell>
                <mxCell id="D9wr6coG-Lvy3lCccFGk-8" value="北京" style="rounded=0;whiteSpace=wrap;html=1;" parent="1" vertex="1">
                    <mxGeometry x="580" y="350" width="60" height="30" as="geometry"/>
                </mxCell>
                <mxCell id="D9wr6coG-Lvy3lCccFGk-9" value="上海" style="rounded=0;whiteSpace=wrap;html=1;" parent="1" vertex="1">
                    <mxGeometry x="650" y="350" width="60" height="30" as="geometry"/>
                </mxCell>
                <mxCell id="D9wr6coG-Lvy3lCccFGk-10" value="" style="endArrow=classic;html=1;rounded=0;exitX=0.5;exitY=1;exitDx=0;exitDy=0;entryX=0.5;entryY=0;entryDx=0;entryDy=0;" parent="1" target="D9wr6coG-Lvy3lCccFGk-8" edge="1">
                    <mxGeometry width="50" height="50" relative="1" as="geometry">
                        <mxPoint x="645" y="320" as="sourcePoint"/>
                        <mxPoint x="725" y="330" as="targetPoint"/>
                    </mxGeometry>
                </mxCell>
                <mxCell id="D9wr6coG-Lvy3lCccFGk-11" value="" style="endArrow=classic;html=1;rounded=0;entryX=0.5;entryY=0;entryDx=0;entryDy=0;exitX=0.5;exitY=1;exitDx=0;exitDy=0;" parent="1" target="D9wr6coG-Lvy3lCccFGk-9" edge="1">
                    <mxGeometry width="50" height="50" relative="1" as="geometry">
                        <mxPoint x="645" y="320" as="sourcePoint"/>
                        <mxPoint x="725" y="330" as="targetPoint"/>
                    </mxGeometry>
                </mxCell>
            </root>
        </mxGraphModel>
    </diagram>
</mxfile>